<svg version="1.1" id="Layer_1" xmlns="http://www.w3.org/2000/svg" x="0" y="0" viewBox="0 0 376 137" style="enable-background:new 0 0 376 137" xml:space="preserve"><style>.st0{fill:#53a69b}.st1{fill:#cdd622}</style><path class="st0" d="M332.84 110.25c-1.81 0-2.61-.79-2.61-2.6V60.8c0-1.8.8-2.6 2.61-2.6H357c10.88 0 14.29 4.92 14.29 12.07v3.32c0 4.05-1.02 6.94-4.07 8.24 5.3.58 8.78 4.41 8.78 10.48v15.33c0 1.81-.8 2.6-2.61 2.6h-11.24c-1.81 0-2.61-.79-2.61-2.6V96.58c0-2.17-.72-3.11-2.76-3.11h-10.15v14.17c0 1.81-.8 2.6-2.61 2.6h-11.18zm13.78-29.79h5.44c2.54 0 3.19-1.45 3.19-3.4V74.6c0-1.95-.65-3.4-3.19-3.4h-5.44v9.26z"/><path class="st1" d="M158.49 10.63V2.29c0-1.55.61-2.24 2.01-2.24h17.65c1.39 0 2.01.62 2.01 2.24v8.34c0 1.62-.61 2.24-2.01 2.24H160.5c-1.4 0-2.01-.62-2.01-2.24m-2.3 19.56v-8.34c0-1.56.61-2.24 2.01-2.24h19.94c1.39 0 2.01.62 2.01 2.24v8.34c0 1.62-.61 2.24-2.01 2.24H158.2c-1.39.01-2.01-.62-2.01-2.24m-2.29 19.59v-8.34c0-1.56.61-2.24 2.01-2.24h22.23c1.39 0 2.01.62 2.01 2.24v8.34c0 1.62-.61 2.24-2.01 2.24h-22.23c-1.39.01-2.01-.62-2.01-2.24"/><path class="st0" d="M151.39 68.81v-8.34c0-1.56.61-2.24 2.01-2.24h24.52c1.39 0 2.01.62 2.01 2.24v8.34c0 1.62-.61 2.24-2.01 2.24H153.4c-1.4.01-2.01-.62-2.01-2.24m-2.29 19.72v-8.34c0-1.56.61-2.24 2.01-2.24h26.81c1.39 0 2.01.62 2.01 2.24v8.34c0 1.62-.61 2.24-2.01 2.24h-26.81c-1.4 0-2.01-.62-2.01-2.24m-2.29 19.44v-8.34c0-1.56.61-2.24 2.01-2.24h29.11c1.39 0 2.01.62 2.01 2.24v8.34c0 1.62-.61 2.24-2.01 2.24h-29.11c-1.4 0-2.01-.62-2.01-2.24m-130.92 2.28c-1.81 0-2.61-.79-2.61-2.6v-35.5H2.61C.8 72.15 0 71.36 0 69.55V60.8c0-1.81.8-2.6 2.61-2.6h38.3c1.82 0 2.61.8 2.61 2.6v8.75c0 1.81-.8 2.6-2.61 2.6H30.25v35.5c0 1.81-.8 2.6-2.61 2.6H15.89zm52.88 1.08c-18.14 0-22.56-5.93-22.56-14.75V71.93c0-8.82 4.42-14.82 22.56-14.82 18.13 0 22.48 6 22.48 14.82v24.65c.01 8.83-4.34 14.75-22.48 14.75m0-13.95c5.3 0 6.09-1.45 6.09-3.4V74.54c0-1.88-.79-3.32-6.09-3.32-5.22 0-6.09 1.44-6.09 3.32v19.45c0 1.94.87 3.39 6.09 3.39m45.56 12.87c-12.19 0-17.85-4.7-17.85-14.75V72.95c0-10.05 5.66-14.75 17.85-14.75h18.13c1.81 0 2.61.8 2.61 2.6v8.75c0 1.81-.8 2.6-2.61 2.6h-15.09c-3.05 0-4.42 1.16-4.42 3.61v17.28c0 2.46 1.09 3.54 3.33 3.54h7.04V85.31c0-1.81.8-2.6 2.61-2.6h11.24c1.82 0 2.61.79 2.61 2.6v22.34c0 1.81-.79 2.6-2.61 2.6h-22.84zm88.29 0c-1.81 0-2.61-.79-2.61-2.6v-35.5h-10.67c-1.81 0-2.61-.79-2.61-2.6V60.8c0-1.81.8-2.6 2.61-2.6h38.31c1.81 0 2.61.8 2.61 2.6v8.75c0 1.81-.8 2.6-2.61 2.6h-10.66v35.5c0 1.81-.8 2.6-2.61 2.6h-11.76zm34.1 0c-1.81 0-2.61-.79-2.61-2.6V60.8c0-1.81.8-2.6 2.61-2.6h11.24c1.82 0 2.61.8 2.61 2.6v15.69h12.11V60.8c0-1.81.8-2.6 2.61-2.6h11.24c1.82 0 2.61.8 2.61 2.6v46.85c0 1.81-.8 2.6-2.61 2.6h-11.24c-1.81 0-2.61-.79-2.61-2.6V91.6h-12.11v16.05c0 1.81-.8 2.6-2.61 2.6h-11.24zm51.86 0c-1.81 0-2.61-.79-2.61-2.6V60.8c0-1.81.8-2.6 2.61-2.6h33.66c1.82 0 2.61.8 2.61 2.6v8.46c0 1.81-.8 2.6-2.61 2.6h-20.02v5.57h14.14c1.81 0 2.61.79 2.61 2.6v7.74c0 1.81-.8 2.6-2.61 2.6h-14.14v6.22h20.02c1.82 0 2.61.79 2.61 2.6v8.46c0 1.81-.8 2.6-2.61 2.6h-33.66z"/><path class="st1" d="M59.2 52.05c-1.81 0-2.61-.8-2.61-2.6v-8.46c0-1.81.8-2.6 2.61-2.6h19.51c1.23 0 1.89-.94 1.89-2.09 0-1.67-.65-2.32-1.89-2.46l-10.88-1.52c-6.82-1.01-11.24-3.9-11.24-12v-7.59C56.59 4.48 62.18 0 71.61 0h20.31c1.81 0 2.61.8 2.61 2.6v8.6c0 1.81-.8 2.6-2.61 2.6h-16.9c-1.23 0-1.96.87-1.96 2.17 0 1.3.72 2.17 1.96 2.31l10.81 1.44c6.82 1.01 11.32 3.9 11.32 12v7.59c0 8.24-5.66 12.72-15.01 12.72H59.2zm54.85 0c-1.81 0-2.61-.8-2.61-2.6v-35.5h-10.67c-1.81 0-2.61-.8-2.61-2.6V2.6c0-1.81.8-2.6 2.61-2.6h38.3c1.82 0 2.61.8 2.61 2.6v8.75c0 1.81-.79 2.6-2.61 2.6h-10.66v35.5c0 1.8-.8 2.6-2.61 2.6h-11.75zm78.35 0c-1.81 0-2.61-.8-2.61-2.6V2.6c0-1.81.8-2.6 2.61-2.6h22.2c13.2 0 17.12 5.71 17.12 14.1v9.25c0 8.39-3.91 14.1-17.12 14.1h-8.34v12c0 1.8-.8 2.6-2.61 2.6H192.4zm13.71-27.62h6.53c2.83 0 3.41-1.66 3.41-3.54v-3.83c0-1.88-.58-3.54-3.41-3.54h-6.53v10.91z"/><path d="M76.8 136.72h-4.63c-1.58 0-2.76-.32-3.52-.95-.77-.63-1.15-1.61-1.15-2.92v-5.9c0-1.32.38-2.29 1.15-2.93.76-.64 1.94-.96 3.52-.96h4.63c.24 0 .41.05.52.16.11.11.16.28.16.52v2.3c0 .24-.05.41-.16.52-.11.11-.28.16-.52.16h-3.81c-.39 0-.68.08-.87.24-.19.16-.29.4-.29.71v4.52c0 .32.1.55.29.69.19.15.48.22.87.22h3.81c.24 0 .41.05.52.16.11.11.16.28.16.52v2.26c0 .24-.05.41-.16.52-.11.1-.28.16-.52.16m14.33-3.59c0 .58-.09 1.11-.26 1.58s-.47.88-.91 1.21c-.44.34-1.04.6-1.8.79-.77.19-1.74.29-2.91.29-1.18 0-2.15-.1-2.92-.29-.77-.19-1.38-.45-1.81-.79-.44-.34-.74-.74-.91-1.21-.17-.47-.26-1-.26-1.58v-6.47c0-.58.09-1.11.26-1.59.17-.47.47-.88.91-1.22.44-.34 1.04-.61 1.81-.8.77-.19 1.75-.28 2.92-.28 1.18 0 2.15.09 2.91.28.77.19 1.37.46 1.8.8.44.34.74.75.91 1.22.17.47.26 1 .26 1.59v6.47zm-7.48-.69c0 .25.09.47.29.64.19.17.63.26 1.31.26s1.12-.08 1.31-.26c.19-.17.29-.38.29-.64v-5.11a.78.78 0 0 0-.29-.62c-.19-.17-.63-.26-1.31-.26s-1.12.09-1.31.26c-.19.17-.29.38-.29.62v5.11zm13.42 4.28h-2.85c-.24 0-.41-.05-.52-.16-.11-.11-.16-.28-.16-.52v-12.3c0-.24.05-.41.16-.52.11-.11.28-.16.52-.16h1.97c.24 0 .45.04.62.11.17.08.34.21.5.4l3.68 4.21v-4.04c0-.24.05-.41.16-.52.11-.11.28-.16.52-.16h2.85c.24 0 .42.05.52.16.11.11.16.28.16.52v12.3c0 .24-.05.41-.16.52-.11.11-.28.16-.52.16h-2.85c-.24 0-.41-.05-.52-.16-.11-.11-.16-.28-.16-.52v-2.33l-3.25-3.93v6.26c0 .24-.05.41-.16.52-.09.1-.27.16-.51.16m14.29 0h-2.85c-.24 0-.41-.05-.52-.16-.11-.11-.16-.28-.16-.52v-12.3c0-.24.05-.41.16-.52.11-.11.28-.16.52-.16h1.97c.24 0 .45.04.62.11.17.08.34.21.5.4l3.68 4.21v-4.04c0-.24.05-.41.16-.52.11-.11.28-.16.52-.16h2.85c.24 0 .41.05.52.16.11.11.16.28.16.52v12.3c0 .24-.05.41-.16.52-.11.11-.28.16-.52.16h-2.85c-.24 0-.41-.05-.52-.16-.11-.11-.16-.28-.16-.52v-2.33l-3.25-3.93v6.26c0 .24-.05.41-.16.52-.09.1-.27.16-.51.16m20.25 0h-8.81c-.24 0-.41-.05-.52-.16-.11-.11-.16-.28-.16-.52v-12.3c0-.24.05-.41.16-.52.11-.11.28-.16.52-.16h8.81c.24 0 .41.05.52.16.11.11.16.28.16.52v2.22c0 .24-.05.41-.16.52-.11.11-.28.16-.52.16h-5.24v1.46h3.7c.24 0 .41.05.52.16.11.11.16.28.16.52v2.03c0 .24-.05.41-.16.52-.11.11-.28.16-.52.16h-3.7v1.63h5.24c.24 0 .41.05.52.16.11.11.16.28.16.52v2.22c0 .24-.05.41-.16.52-.1.12-.28.18-.52.18m11.94 0h-4.63c-1.58 0-2.76-.32-3.52-.95-.77-.63-1.15-1.61-1.15-2.92v-5.9c0-1.32.38-2.29 1.15-2.93.76-.64 1.94-.96 3.52-.96h4.63c.24 0 .41.05.52.16s.16.28.16.52v2.3c0 .24-.05.41-.16.52-.11.11-.28.16-.52.16h-3.81c-.39 0-.68.08-.87.24-.19.16-.29.4-.29.71v4.52c0 .32.09.55.29.69.19.15.48.22.87.22h3.81c.24 0 .41.05.52.16.11.11.16.28.16.52v2.26c0 .24-.05.41-.16.52s-.28.16-.52.16m9.28 0h-3.07c-.24 0-.41-.05-.52-.16-.11-.11-.16-.28-.16-.52v-9.32h-2.79c-.24 0-.41-.05-.52-.16-.11-.11-.16-.28-.16-.52v-2.3c0-.24.05-.41.16-.52s.28-.16.52-.16h10.02c.24 0 .41.05.52.16s.16.28.16.52v2.3c0 .24-.05.41-.16.52-.11.11-.28.16-.52.16h-2.79v9.32c0 .24-.05.41-.16.52s-.29.16-.53.16m10.23-4.88c-.24 0-.41-.05-.52-.16-.11-.11-.16-.28-.16-.52v-2.54c0-.24.05-.41.16-.52.11-.11.28-.16.52-.16h5.09c.24 0 .41.05.52.16.11.11.16.28.16.52v2.54c0 .24-.05.41-.16.52-.11.11-.28.16-.52.16h-5.09zm21.6 4.88h-8.81c-.24 0-.41-.05-.52-.16-.11-.11-.16-.28-.16-.52v-12.3c0-.24.05-.41.16-.52.11-.11.28-.16.52-.16h8.81c.24 0 .41.05.52.16s.16.28.16.52v2.22c0 .24-.05.41-.16.52-.11.11-.28.16-.52.16h-5.24v1.46h3.7c.24 0 .41.05.52.16.11.11.16.28.16.52v2.03c0 .24-.05.41-.16.52-.11.11-.28.16-.52.16h-3.7v1.63h5.24c.24 0 .41.05.52.16.11.11.16.28.16.52v2.22c0 .24-.05.41-.16.52s-.28.18-.52.18m6.45 0h-2.85c-.24 0-.41-.05-.52-.16-.11-.11-.16-.28-.16-.52v-12.3c0-.24.05-.41.16-.52.11-.11.28-.16.52-.16h1.97c.24 0 .45.04.62.11.17.08.34.21.5.4l3.68 4.21v-4.04c0-.24.05-.41.16-.52s.28-.16.52-.16h2.85c.24 0 .42.05.52.16.11.11.16.28.16.52v12.3c0 .24-.05.41-.16.52-.11.11-.28.16-.52.16h-2.85c-.24 0-.41-.05-.52-.16s-.16-.28-.16-.52v-2.33l-3.25-3.93v6.26c0 .24-.05.41-.16.52s-.27.16-.51.16m21.2 0h-5.98c-1.58 0-2.76-.32-3.52-.95-.77-.63-1.15-1.61-1.15-2.92v-5.92c0-1.32.38-2.29 1.15-2.92.76-.63 1.94-.95 3.52-.95h4.74c.24 0 .41.05.52.16s.16.28.16.52v2.3c0 .24-.05.41-.16.52-.11.11-.28.16-.52.16h-3.95c-.39 0-.68.08-.87.24-.19.16-.29.4-.29.71v4.54c0 .32.07.55.22.7.15.15.36.23.65.23h1.84v-2.96c0-.24.05-.41.16-.52.11-.11.28-.16.52-.16h2.94c.24 0 .41.05.52.16s.16.28.16.52v5.86c0 .24-.05.41-.16.52s-.26.16-.5.16m6.87-.69c0 .24-.05.42-.16.52-.11.11-.28.16-.52.16h-2.79c-.24 0-.41-.05-.52-.16-.11-.11-.16-.28-.16-.52v-5.01c0-.38.06-.82.18-1.31.12-.49.31-1.07.56-1.73l1.65-4.31c.08-.21.19-.37.35-.47.16-.1.36-.15.62-.15h5.11c.24 0 .44.05.6.15.16.1.27.26.35.47l1.65 4.31c.25.66.44 1.23.56 1.73.12.49.18.93.18 1.31v5.01c0 .24-.05.42-.16.52-.11.11-.28.16-.52.16h-2.87c-.25 0-.44-.05-.56-.16-.12-.11-.18-.28-.18-.52v-2.66h-3.36v2.66zm1.09-8.99-.89 2.89h2.98l-.89-2.89a.9.9 0 0 0-.16-.25.297.297 0 0 0-.2-.08h-.47c-.08 0-.14.03-.2.08-.07.05-.12.13-.17.25m19.34 9.68h-5.98c-1.58 0-2.76-.32-3.52-.95-.77-.63-1.15-1.61-1.15-2.92v-5.92c0-1.32.38-2.29 1.15-2.92.76-.63 1.94-.95 3.52-.95h4.74c.24 0 .41.05.52.16s.16.28.16.52v2.3c0 .24-.05.41-.16.52-.11.11-.28.16-.52.16h-3.95c-.39 0-.68.08-.87.24-.19.16-.29.4-.29.71v4.54c0 .32.07.55.22.7.15.15.36.23.65.23h1.84v-2.96c0-.24.05-.41.16-.52.11-.11.28-.16.52-.16h2.94c.24 0 .41.05.52.16s.16.28.16.52v5.86c0 .24-.05.41-.16.52s-.26.16-.5.16m12.48 0h-8.81c-.24 0-.41-.05-.52-.16s-.16-.28-.16-.52v-12.3c0-.24.05-.41.16-.52s.28-.16.52-.16h8.81c.24 0 .41.05.52.16s.16.28.16.52v2.22c0 .24-.05.41-.16.52-.11.11-.28.16-.52.16h-5.24v1.46h3.7c.24 0 .41.05.52.16.11.11.16.28.16.52v2.03c0 .24-.05.41-.16.52-.11.11-.28.16-.52.16h-3.7v1.63h5.24c.24 0 .41.05.52.16.11.11.16.28.16.52v2.22c0 .24-.05.41-.16.52s-.28.18-.52.18m7.33-4.88c-.24 0-.42-.05-.52-.16-.11-.11-.16-.28-.16-.52v-2.54c0-.24.05-.41.16-.52.11-.11.28-.16.52-.16h5.09c.24 0 .41.05.52.16.11.11.16.28.16.52v2.54c0 .24-.05.41-.16.52-.11.11-.28.16-.52.16h-5.09zm21.6 4.88h-8.81c-.24 0-.41-.05-.52-.16-.11-.11-.16-.28-.16-.52v-12.3c0-.24.05-.41.16-.52.11-.11.28-.16.52-.16h8.81c.24 0 .41.05.52.16.11.11.16.28.16.52v2.22c0 .24-.05.41-.16.52-.11.11-.28.16-.52.16h-5.24v1.46h3.7c.24 0 .41.05.52.16.11.11.16.28.16.52v2.03c0 .24-.05.41-.16.52-.11.11-.28.16-.52.16h-3.7v1.63h5.24c.24 0 .41.05.52.16.11.11.16.28.16.52v2.22c0 .24-.05.41-.16.52-.11.12-.28.18-.52.18m6.43 0h-2.83c-.24 0-.41-.05-.52-.16-.11-.11-.16-.28-.16-.52v-12.3c0-.24.05-.41.16-.52.11-.11.28-.16.52-.16h3.06c.2 0 .37.04.5.13s.26.23.37.44l1.71 3.09c.06.11.12.2.16.25.04.05.1.08.18.08h.17c.08 0 .14-.03.18-.08.04-.05.1-.13.16-.25l1.69-3.09c.11-.2.24-.35.37-.44.13-.09.3-.13.5-.13h3.07c.24 0 .41.05.52.16.11.11.16.28.16.52v12.3c0 .24-.05.41-.16.52-.11.11-.28.16-.52.16h-2.92c-.24 0-.41-.05-.52-.16-.11-.11-.16-.28-.16-.52v-6.68l-1.12 2.07c-.11.22-.25.37-.41.47-.16.09-.36.14-.6.14h-.76c-.24 0-.44-.05-.6-.14-.16-.1-.29-.25-.41-.47l-1.12-2.07v6.68c0 .24-.05.41-.16.52-.09.1-.27.16-.51.16m16.23-.01h-2.94c-.24 0-.41-.05-.52-.16-.11-.11-.16-.28-.16-.52v-12.3c0-.24.05-.41.16-.52.11-.11.28-.16.52-.16h5.81c1.72 0 2.9.34 3.53 1.03.63.68.95 1.57.95 2.68v2.43c0 1.1-.32 1.99-.95 2.68-.63.68-1.81 1.02-3.53 1.02h-2.18v3.15c0 .24-.05.42-.16.52-.12.1-.29.15-.53.15m.64-10.11v2.87h1.71c.37 0 .61-.1.72-.29.11-.19.17-.4.17-.65v-1.01c0-.24-.06-.46-.17-.65-.11-.19-.35-.28-.72-.28h-1.71zm20.26 6.53c0 .58-.09 1.11-.26 1.58s-.47.88-.91 1.21c-.44.34-1.04.6-1.8.79-.76.19-1.74.29-2.91.29-1.18 0-2.15-.1-2.92-.29-.77-.19-1.38-.45-1.81-.79-.44-.34-.74-.74-.91-1.21-.17-.47-.26-1-.26-1.58v-6.47c0-.58.09-1.11.26-1.59.17-.47.47-.88.91-1.22.44-.34 1.04-.61 1.81-.8.77-.19 1.75-.28 2.92-.28 1.18 0 2.15.09 2.91.28.77.19 1.37.46 1.8.8.44.34.74.75.91 1.22.17.47.26 1 .26 1.59v6.47zm-7.48-.69c0 .25.1.47.29.64.19.17.63.26 1.31.26s1.12-.08 1.31-.26c.19-.17.29-.38.29-.64v-5.11a.78.78 0 0 0-.29-.62c-.19-.17-.63-.26-1.31-.26s-1.12.09-1.31.26c-.19.17-.29.38-.29.62v5.11zm19.7-9.39h2.83c.24 0 .41.05.52.16.11.11.16.28.16.52v7.36c0 .4-.02.78-.05 1.13-.03.35-.13.76-.29 1.22l-.95 2.58c-.06.19-.16.35-.27.48-.12.13-.28.2-.48.2h-2.52c-.2 0-.39-.04-.55-.13-.17-.09-.27-.23-.32-.44l-.87-3.1a.614.614 0 0 0-.14-.26.346.346 0 0 0-.2-.07h-.17c-.08 0-.14.02-.2.07s-.1.13-.14.26l-.89 3.1c-.05.19-.15.33-.28.43-.14.09-.31.14-.51.14h-2.51c-.2 0-.38-.06-.52-.19-.15-.13-.25-.29-.31-.49l-.95-2.62c-.16-.47-.26-.88-.29-1.22-.03-.35-.05-.72-.05-1.13v-7.33c0-.24.05-.41.16-.52.11-.11.28-.16.52-.16h2.92c.24 0 .41.05.52.16.11.11.16.28.16.52v6.98l1.1-2.39c.1-.22.23-.37.4-.46.16-.09.37-.13.61-.13h.8c.24 0 .44.05.61.13.16.09.3.24.4.46l1.1 2.39v-6.98c0-.24.05-.41.16-.52.07-.1.25-.15.49-.15m15.45 13.67h-8.81c-.24 0-.41-.05-.52-.16-.11-.11-.16-.28-.16-.52v-12.3c0-.24.05-.41.16-.52.11-.11.28-.16.52-.16h8.81c.24 0 .41.05.52.16.11.11.16.28.16.52v2.22c0 .24-.05.41-.16.52-.11.11-.28.16-.52.16h-5.24v1.46h3.7c.24 0 .41.05.52.16.11.11.16.28.16.52v2.03c0 .24-.05.41-.16.52-.11.11-.28.16-.52.16h-3.7v1.63h5.24c.24 0 .41.05.52.16.11.11.16.28.16.52v2.22c0 .24-.05.41-.16.52-.11.12-.28.18-.52.18m6.53 0h-2.92c-.24 0-.41-.05-.52-.16-.11-.11-.16-.28-.16-.52v-12.3c0-.24.05-.41.16-.52.11-.11.28-.16.52-.16h6.32c1.42 0 2.39.29 2.93.88.54.59.81 1.35.81 2.29v.87c0 .53-.08.98-.24 1.36a1.5 1.5 0 0 1-.83.81c.68.08 1.24.35 1.66.83.42.48.64 1.12.64 1.92v4.02c0 .24-.05.41-.16.52-.11.11-.28.16-.52.16h-2.94c-.24 0-.41-.05-.52-.16-.11-.11-.16-.28-.16-.52v-2.9c0-.28-.05-.48-.16-.62-.11-.13-.3-.2-.56-.2h-2.66v3.72c0 .24-.05.41-.16.52-.12.1-.29.16-.53.16m.68-10.25v2.43h1.42c.33 0 .55-.09.66-.26.11-.17.17-.38.17-.64v-.65c0-.25-.06-.46-.17-.64-.11-.17-.34-.26-.66-.26h-1.42z" style="fill:#7c7c7c"/></svg>