<svg version="1.1" id="Layer_1" xmlns="http://www.w3.org/2000/svg" x="0" y="0" viewBox="0 0 300 300" style="enable-background:new 0 0 300 300" xml:space="preserve"><style>.st0{fill:#cdd622}.st1{fill:#53a69b}</style><path class="st0" d="M10.5 133.42c-4.64 0-6.68-2.04-6.68-6.67v-21.68c0-4.64 2.05-6.67 6.68-6.67h49.96c3.16 0 4.83-2.41 4.83-5.37 0-4.27-1.67-5.93-4.83-6.31L32.6 82.83c-17.46-2.6-28.79-10-28.79-30.76V32.61C3.81 11.48 18.11 0 42.25 0h52c4.64 0 6.69 2.04 6.69 6.67v22.06c0 4.63-2.05 6.67-6.69 6.67H50.98c-3.16 0-5.01 2.23-5.01 5.57 0 3.33 1.85 5.55 5.01 5.93l27.66 3.7c17.46 2.6 28.97 10 28.97 30.76v19.46c0 21.12-14.48 32.61-38.44 32.61l-58.67-.01z"/><path class="st1" d="M40.68 300c-4.64 0-6.69-2.04-6.69-6.67v-90.99H6.68c-4.64 0-6.68-2.04-6.68-6.67v-22.43c0-4.63 2.05-6.67 6.68-6.67h98.06c4.65 0 6.69 2.04 6.69 6.67v22.43c0 4.63-2.05 6.67-6.69 6.67H77.45v90.99c0 4.63-2.05 6.67-6.69 6.67H40.68z"/><path class="st0" d="M156.63 61.06V12.93C156.63 3.95 160.17 0 168.2 0h120.23C296.46 0 300 3.58 300 12.93v48.13c0 9.33-3.54 12.94-11.57 12.94H168.2c-8.03-.01-11.57-3.61-11.57-12.94"/><path class="st1" d="M143.43 174.87v-48.13c0-8.98 3.54-12.93 11.57-12.93h133.43c8.03 0 11.57 3.58 11.57 12.93v48.13c0 9.34-3.54 12.94-11.57 12.94H154.99c-8.02 0-11.56-3.6-11.56-12.94m-13.2 112.2v-48.13c0-8.98 3.53-12.93 11.56-12.93h146.64c8.03 0 11.56 3.58 11.56 12.93v48.13c0 9.34-3.53 12.93-11.56 12.93H141.79c-8.03 0-11.56-3.59-11.56-12.93"/></svg>